<svg width="771" height="222" viewBox="0 0 771 222" fill="none" xmlns="http://www.w3.org/2000/svg">
<rect width="770.046" height="221.589" rx="50" fill="black" fill-opacity="0.4" style="mix-blend-mode:plus-darker"/>
<g filter="url(#filter1_ddf_645_666)">
<path d="M135.1 61.5884V93.5884H109.5V29.5884H135.1V35.9884H141.5V42.3884H147.9V48.7884H154.3V29.5884H179.9V93.5884H154.3V74.3884H147.9V67.9884H141.5V61.5884H135.1ZM192.65 93.5884V87.1884H186.25V35.9884H192.65V29.5884H256.65V42.3884H211.85V55.1884H231.05V67.9884H211.85V80.7884H256.65V93.5884H192.65ZM307.8 42.3884V93.5884H282.2V42.3884H263V29.5884H327V42.3884H307.8ZM358.975 87.1884V93.5884H333.375V29.5884H358.975V61.5884H365.375V55.1884H371.775V48.7884H378.175V55.1884H384.575V61.5884H390.975V29.5884H416.575V93.5884H390.975V87.1884H384.575V80.7884H378.175V74.3884H371.775V80.7884H365.375V87.1884H358.975ZM487 87.1884V93.5884H429.4V87.1884H423V35.9884H429.4V29.5884H487V35.9884H493.4V87.1884H487ZM467.8 67.9884V55.1884V42.3884H448.6V80.7884H467.8V67.9884ZM525.35 67.9884V93.5884H499.75V29.5884H525.35H544.55H563.75V35.9884H570.15V55.1884H563.75V67.9884H570.15V93.5884H544.55V67.9884H525.35ZM525.35 42.3884V55.1884H544.55V42.3884H525.35ZM602.1 74.3884V93.5884H576.5V29.5884H602.1V48.7884H608.5V42.3884H614.9V35.9884H621.3V29.5884H646.9H653.3V42.3884H646.9V48.7884H640.5V55.1884H634.1V67.9884H640.5V74.3884H646.9V80.7884H653.3V93.5884H621.3V87.1884H614.9V80.7884H608.5V74.3884H602.1ZM80.75 188.588V175.788H125.55V162.988H87.15V156.588H80.75V130.988H87.15V124.588H151.15V137.388H106.35V150.188H125.55H144.75V156.588H151.15V182.188H144.75V188.588H80.75ZM163.9 188.588V182.188H157.5V130.988H163.9V124.588H227.9V137.388H183.1V150.188H202.3V162.988H183.1V175.788H227.9V188.588H163.9ZM298.25 182.188V188.588H240.65V182.188H234.25V130.988H240.65V124.588H259.85H298.25V130.988H304.65V150.188H279.05V137.388H259.85V175.788H279.05V162.988H298.25H304.65V182.188H298.25ZM375 182.188V188.588H317.4V182.188H311V124.588H336.6V175.788H355.8V124.588H381.4V182.188H375ZM413.35 162.988V188.588H387.75V124.588H413.35H432.55H451.75V130.988H458.15V150.188H451.75V162.988H458.15V188.588H432.55V162.988H413.35ZM413.35 137.388V150.188H432.55V137.388H413.35ZM464.5 137.388V124.588H528.5V137.388H509.3V175.788H528.5V188.588H464.5V175.788H483.7V137.388H464.5ZM579.675 137.388V188.588H554.075V137.388H534.875V124.588H598.875V137.388H579.675ZM605.25 150.188V124.588H630.85V143.788H637.25V150.188H650.05V143.788H656.45V124.588H682.05V150.188H675.65V156.588H669.25V162.988H656.45V188.588H630.85V162.988H618.05V156.588H611.65V150.188H605.25Z" fill="#A6FFF2"/>
</g>
<g filter="url(#filter2_dd_645_666)">
<mask id="path-3-inside-1_645_666" fill="white">
<path d="M135.1 61.5884V93.5884H109.5V29.5884H135.1V35.9884H141.5V42.3884H147.9V48.7884H154.3V29.5884H179.9V93.5884H154.3V74.3884H147.9V67.9884H141.5V61.5884H135.1ZM192.65 93.5884V87.1884H186.25V35.9884H192.65V29.5884H256.65V42.3884H211.85V55.1884H231.05V67.9884H211.85V80.7884H256.65V93.5884H192.65ZM307.8 42.3884V93.5884H282.2V42.3884H263V29.5884H327V42.3884H307.8ZM358.975 87.1884V93.5884H333.375V29.5884H358.975V61.5884H365.375V55.1884H371.775V48.7884H378.175V55.1884H384.575V61.5884H390.975V29.5884H416.575V93.5884H390.975V87.1884H384.575V80.7884H378.175V74.3884H371.775V80.7884H365.375V87.1884H358.975ZM487 87.1884V93.5884H429.4V87.1884H423V35.9884H429.4V29.5884H487V35.9884H493.4V87.1884H487ZM467.8 67.9884V55.1884V42.3884H448.6V80.7884H467.8V67.9884ZM525.35 67.9884V93.5884H499.75V29.5884H525.35H544.55H563.75V35.9884H570.15V55.1884H563.75V67.9884H570.15V93.5884H544.55V67.9884H525.35ZM525.35 42.3884V55.1884H544.55V42.3884H525.35ZM602.1 74.3884V93.5884H576.5V29.5884H602.1V48.7884H608.5V42.3884H614.9V35.9884H621.3V29.5884H646.9H653.3V42.3884H646.9V48.7884H640.5V55.1884H634.1V67.9884H640.5V74.3884H646.9V80.7884H653.3V93.5884H621.3V87.1884H614.9V80.7884H608.5V74.3884H602.1ZM80.75 188.588V175.788H125.55V162.988H87.15V156.588H80.75V130.988H87.15V124.588H151.15V137.388H106.35V150.188H125.55H144.75V156.588H151.15V182.188H144.75V188.588H80.75ZM163.9 188.588V182.188H157.5V130.988H163.9V124.588H227.9V137.388H183.1V150.188H202.3V162.988H183.1V175.788H227.9V188.588H163.9ZM298.25 182.188V188.588H240.65V182.188H234.25V130.988H240.65V124.588H259.85H298.25V130.988H304.65V150.188H279.05V137.388H259.85V175.788H279.05V162.988H298.25H304.65V182.188H298.25ZM375 182.188V188.588H317.4V182.188H311V124.588H336.6V175.788H355.8V124.588H381.4V182.188H375ZM413.35 162.988V188.588H387.75V124.588H413.35H432.55H451.75V130.988H458.15V150.188H451.75V162.988H458.15V188.588H432.55V162.988H413.35ZM413.35 137.388V150.188H432.55V137.388H413.35ZM464.5 137.388V124.588H528.5V137.388H509.3V175.788H528.5V188.588H464.5V175.788H483.7V137.388H464.5ZM579.675 137.388V188.588H554.075V137.388H534.875V124.588H598.875V137.388H579.675ZM605.25 150.188V124.588H630.85V143.788H637.25V150.188H650.05V143.788H656.45V124.588H682.05V150.188H675.65V156.588H669.25V162.988H656.45V188.588H630.85V162.988H618.05V156.588H611.65V150.188H605.25Z"/>
</mask>
<path d="M135.1 61.5884V93.5884H109.5V29.5884H135.1V35.9884H141.5V42.3884H147.9V48.7884H154.3V29.5884H179.9V93.5884H154.3V74.3884H147.9V67.9884H141.5V61.5884H135.1ZM192.65 93.5884V87.1884H186.25V35.9884H192.65V29.5884H256.65V42.3884H211.85V55.1884H231.05V67.9884H211.85V80.7884H256.65V93.5884H192.65ZM307.8 42.3884V93.5884H282.2V42.3884H263V29.5884H327V42.3884H307.8ZM358.975 87.1884V93.5884H333.375V29.5884H358.975V61.5884H365.375V55.1884H371.775V48.7884H378.175V55.1884H384.575V61.5884H390.975V29.5884H416.575V93.5884H390.975V87.1884H384.575V80.7884H378.175V74.3884H371.775V80.7884H365.375V87.1884H358.975ZM487 87.1884V93.5884H429.4V87.1884H423V35.9884H429.4V29.5884H487V35.9884H493.4V87.1884H487ZM467.8 67.9884V55.1884V42.3884H448.6V80.7884H467.8V67.9884ZM525.35 67.9884V93.5884H499.75V29.5884H525.35H544.55H563.75V35.9884H570.15V55.1884H563.75V67.9884H570.15V93.5884H544.55V67.9884H525.35ZM525.35 42.3884V55.1884H544.55V42.3884H525.35ZM602.1 74.3884V93.5884H576.5V29.5884H602.1V48.7884H608.5V42.3884H614.9V35.9884H621.3V29.5884H646.9H653.3V42.3884H646.9V48.7884H640.5V55.1884H634.1V67.9884H640.5V74.3884H646.9V80.7884H653.3V93.5884H621.3V87.1884H614.9V80.7884H608.5V74.3884H602.1ZM80.75 188.588V175.788H125.55V162.988H87.15V156.588H80.75V130.988H87.15V124.588H151.15V137.388H106.35V150.188H125.55H144.75V156.588H151.15V182.188H144.75V188.588H80.75ZM163.9 188.588V182.188H157.5V130.988H163.9V124.588H227.9V137.388H183.1V150.188H202.3V162.988H183.1V175.788H227.9V188.588H163.9ZM298.25 182.188V188.588H240.65V182.188H234.25V130.988H240.65V124.588H259.85H298.25V130.988H304.65V150.188H279.05V137.388H259.85V175.788H279.05V162.988H298.25H304.65V182.188H298.25ZM375 182.188V188.588H317.4V182.188H311V124.588H336.6V175.788H355.8V124.588H381.4V182.188H375ZM413.35 162.988V188.588H387.75V124.588H413.35H432.55H451.75V130.988H458.15V150.188H451.75V162.988H458.15V188.588H432.55V162.988H413.35ZM413.35 137.388V150.188H432.55V137.388H413.35ZM464.5 137.388V124.588H528.5V137.388H509.3V175.788H528.5V188.588H464.5V175.788H483.7V137.388H464.5ZM579.675 137.388V188.588H554.075V137.388H534.875V124.588H598.875V137.388H579.675ZM605.25 150.188V124.588H630.85V143.788H637.25V150.188H650.05V143.788H656.45V124.588H682.05V150.188H675.65V156.588H669.25V162.988H656.45V188.588H630.85V162.988H618.05V156.588H611.65V150.188H605.25Z" fill="#A6FFF2"/>
<path d="M135.1 61.5884V59.5884H133.1V61.5884H135.1ZM135.1 93.5884V95.5884H137.1V93.5884H135.1ZM109.5 93.5884H107.5V95.5884H109.5V93.5884ZM109.5 29.5884V27.5884H107.5V29.5884H109.5ZM135.1 29.5884H137.1V27.5884H135.1V29.5884ZM135.1 35.9884H133.1V37.9884H135.1V35.9884ZM141.5 35.9884H143.5V33.9884H141.5V35.9884ZM141.5 42.3884H139.5V44.3884H141.5V42.3884ZM147.9 42.3884H149.9V40.3884H147.9V42.3884ZM147.9 48.7884H145.9V50.7884H147.9V48.7884ZM154.3 48.7884V50.7884H156.3V48.7884H154.3ZM154.3 29.5884V27.5884H152.3V29.5884H154.3ZM179.9 29.5884H181.9V27.5884H179.9V29.5884ZM179.9 93.5884V95.5884H181.9V93.5884H179.9ZM154.3 93.5884H152.3V95.5884H154.3V93.5884ZM154.3 74.3884H156.3V72.3884H154.3V74.3884ZM147.9 74.3884H145.9V76.3884H147.9V74.3884ZM147.9 67.9884H149.9V65.9884H147.9V67.9884ZM141.5 67.9884H139.5V69.9884H141.5V67.9884ZM141.5 61.5884H143.5V59.5884H141.5V61.5884ZM135.1 61.5884H133.1V93.5884H135.1H137.1V61.5884H135.1ZM135.1 93.5884V91.5884H109.5V93.5884V95.5884H135.1V93.5884ZM109.5 93.5884H111.5V29.5884H109.5H107.5V93.5884H109.5ZM109.5 29.5884V31.5884H135.1V29.5884V27.5884H109.5V29.5884ZM135.1 29.5884H133.1V35.9884H135.1H137.1V29.5884H135.1ZM135.1 35.9884V37.9884H141.5V35.9884V33.9884H135.1V35.9884ZM141.5 35.9884H139.5V42.3884H141.5H143.5V35.9884H141.5ZM141.5 42.3884V44.3884H147.9V42.3884V40.3884H141.5V42.3884ZM147.9 42.3884H145.9V48.7884H147.9H149.9V42.3884H147.9ZM147.9 48.7884V50.7884H154.3V48.7884V46.7884H147.9V48.7884ZM154.3 48.7884H156.3V29.5884H154.3H152.3V48.7884H154.3ZM154.3 29.5884V31.5884H179.9V29.5884V27.5884H154.3V29.5884ZM179.9 29.5884H177.9V93.5884H179.9H181.9V29.5884H179.9ZM179.9 93.5884V91.5884H154.3V93.5884V95.5884H179.9V93.5884ZM154.3 93.5884H156.3V74.3884H154.3H152.3V93.5884H154.3ZM154.3 74.3884V72.3884H147.9V74.3884V76.3884H154.3V74.3884ZM147.9 74.3884H149.9V67.9884H147.9H145.9V74.3884H147.9ZM147.9 67.9884V65.9884H141.5V67.9884V69.9884H147.9V67.9884ZM141.5 67.9884H143.5V61.5884H141.5H139.5V67.9884H141.5ZM141.5 61.5884V59.5884H135.1V61.5884V63.5884H141.5V61.5884ZM192.65 93.5884H190.65V95.5884H192.65V93.5884ZM192.65 87.1884H194.65V85.1884H192.65V87.1884ZM186.25 87.1884H184.25V89.1884H186.25V87.1884ZM186.25 35.9884V33.9884H184.25V35.9884H186.25ZM192.65 35.9884V37.9884H194.65V35.9884H192.65ZM192.65 29.5884V27.5884H190.65V29.5884H192.65ZM256.65 29.5884H258.65V27.5884H256.65V29.5884ZM256.65 42.3884V44.3884H258.65V42.3884H256.65ZM211.85 42.3884V40.3884H209.85V42.3884H211.85ZM211.85 55.1884H209.85V57.1884H211.85V55.1884ZM231.05 55.1884H233.05V53.1884H231.05V55.1884ZM231.05 67.9884V69.9884H233.05V67.9884H231.05ZM211.85 67.9884V65.9884H209.85V67.9884H211.85ZM211.85 80.7884H209.85V82.7884H211.85V80.7884ZM256.65 80.7884H258.65V78.7884H256.65V80.7884ZM256.65 93.5884V95.5884H258.65V93.5884H256.65ZM192.65 93.5884H194.65V87.1884H192.65H190.65V93.5884H192.65ZM192.65 87.1884V85.1884H186.25V87.1884V89.1884H192.65V87.1884ZM186.25 87.1884H188.25V35.9884H186.25H184.25V87.1884H186.25ZM186.25 35.9884V37.9884H192.65V35.9884V33.9884H186.25V35.9884ZM192.65 35.9884H194.65V29.5884H192.65H190.65V35.9884H192.65ZM192.65 29.5884V31.5884H256.65V29.5884V27.5884H192.65V29.5884ZM256.65 29.5884H254.65V42.3884H256.65H258.65V29.5884H256.65ZM256.65 42.3884V40.3884H211.85V42.3884V44.3884H256.65V42.3884ZM211.85 42.3884H209.85V55.1884H211.85H213.85V42.3884H211.85ZM211.85 55.1884V57.1884H231.05V55.1884V53.1884H211.85V55.1884ZM231.05 55.1884H229.05V67.9884H231.05H233.05V55.1884H231.05ZM231.05 67.9884V65.9884H211.85V67.9884V69.9884H231.05V67.9884ZM211.85 67.9884H209.85V80.7884H211.85H213.85V67.9884H211.85ZM211.85 80.7884V82.7884H256.65V80.7884V78.7884H211.85V80.7884ZM256.65 80.7884H254.65V93.5884H256.65H258.65V80.7884H256.65ZM256.65 93.5884V91.5884H192.65V93.5884V95.5884H256.65V93.5884ZM307.8 42.3884V40.3884H305.8V42.3884H307.8ZM307.8 93.5884V95.5884H309.8V93.5884H307.8ZM282.2 93.5884H280.2V95.5884H282.2V93.5884ZM282.2 42.3884H284.2V40.3884H282.2V42.3884ZM263 42.3884H261V44.3884H263V42.3884ZM263 29.5884V27.5884H261V29.5884H263ZM327 29.5884H329V27.5884H327V29.5884ZM327 42.3884V44.3884H329V42.3884H327ZM307.8 42.3884H305.8V93.5884H307.8H309.8V42.3884H307.8ZM307.8 93.5884V91.5884H282.2V93.5884V95.5884H307.8V93.5884ZM282.2 93.5884H284.2V42.3884H282.2H280.2V93.5884H282.2ZM282.2 42.3884V40.3884H263V42.3884V44.3884H282.2V42.3884ZM263 42.3884H265V29.5884H263H261V42.3884H263ZM263 29.5884V31.5884H327V29.5884V27.5884H263V29.5884ZM327 29.5884H325V42.3884H327H329V29.5884H327ZM327 42.3884V40.3884H307.8V42.3884V44.3884H327V42.3884ZM358.975 87.1884V85.1884H356.975V87.1884H358.975ZM358.975 93.5884V95.5884H360.975V93.5884H358.975ZM333.375 93.5884H331.375V95.5884H333.375V93.5884ZM333.375 29.5884V27.5884H331.375V29.5884H333.375ZM358.975 29.5884H360.975V27.5884H358.975V29.5884ZM358.975 61.5884H356.975V63.5884H358.975V61.5884ZM365.375 61.5884V63.5884H367.375V61.5884H365.375ZM365.375 55.1884V53.1884H363.375V55.1884H365.375ZM371.775 55.1884V57.1884H373.775V55.1884H371.775ZM371.775 48.7884V46.7884H369.775V48.7884H371.775ZM378.175 48.7884H380.175V46.7884H378.175V48.7884ZM378.175 55.1884H376.175V57.1884H378.175V55.1884ZM384.575 55.1884H386.575V53.1884H384.575V55.1884ZM384.575 61.5884H382.575V63.5884H384.575V61.5884ZM390.975 61.5884V63.5884H392.975V61.5884H390.975ZM390.975 29.5884V27.5884H388.975V29.5884H390.975ZM416.575 29.5884H418.575V27.5884H416.575V29.5884ZM416.575 93.5884V95.5884H418.575V93.5884H416.575ZM390.975 93.5884H388.975V95.5884H390.975V93.5884ZM390.975 87.1884H392.975V85.1884H390.975V87.1884ZM384.575 87.1884H382.575V89.1884H384.575V87.1884ZM384.575 80.7884H386.575V78.7884H384.575V80.7884ZM378.175 80.7884H376.175V82.7884H378.175V80.7884ZM378.175 74.3884H380.175V72.3884H378.175V74.3884ZM371.775 74.3884V72.3884H369.775V74.3884H371.775ZM371.775 80.7884V82.7884H373.775V80.7884H371.775ZM365.375 80.7884V78.7884H363.375V80.7884H365.375ZM365.375 87.1884V89.1884H367.375V87.1884H365.375ZM358.975 87.1884H356.975V93.5884H358.975H360.975V87.1884H358.975ZM358.975 93.5884V91.5884H333.375V93.5884V95.5884H358.975V93.5884ZM333.375 93.5884H335.375V29.5884H333.375H331.375V93.5884H333.375ZM333.375 29.5884V31.5884H358.975V29.5884V27.5884H333.375V29.5884ZM358.975 29.5884H356.975V61.5884H358.975H360.975V29.5884H358.975ZM358.975 61.5884V63.5884H365.375V61.5884V59.5884H358.975V61.5884ZM365.375 61.5884H367.375V55.1884H365.375H363.375V61.5884H365.375ZM365.375 55.1884V57.1884H371.775V55.1884V53.1884H365.375V55.1884ZM371.775 55.1884H373.775V48.7884H371.775H369.775V55.1884H371.775ZM371.775 48.7884V50.7884H378.175V48.7884V46.7884H371.775V48.7884ZM378.175 48.7884H376.175V55.1884H378.175H380.175V48.7884H378.175ZM378.175 55.1884V57.1884H384.575V55.1884V53.1884H378.175V55.1884ZM384.575 55.1884H382.575V61.5884H384.575H386.575V55.1884H384.575ZM384.575 61.5884V63.5884H390.975V61.5884V59.5884H384.575V61.5884ZM390.975 61.5884H392.975V29.5884H390.975H388.975V61.5884H390.975ZM390.975 29.5884V31.5884H416.575V29.5884V27.5884H390.975V29.5884ZM416.575 29.5884H414.575V93.5884H416.575H418.575V29.5884H416.575ZM416.575 93.5884V91.5884H390.975V93.5884V95.5884H416.575V93.5884ZM390.975 93.5884H392.975V87.1884H390.975H388.975V93.5884H390.975ZM390.975 87.1884V85.1884H384.575V87.1884V89.1884H390.975V87.1884ZM384.575 87.1884H386.575V80.7884H384.575H382.575V87.1884H384.575ZM384.575 80.7884V78.7884H378.175V80.7884V82.7884H384.575V80.7884ZM378.175 80.7884H380.175V74.3884H378.175H376.175V80.7884H378.175ZM378.175 74.3884V72.3884H371.775V74.3884V76.3884H378.175V74.3884ZM371.775 74.3884H369.775V80.7884H371.775H373.775V74.3884H371.775ZM371.775 80.7884V78.7884H365.375V80.7884V82.7884H371.775V80.7884ZM365.375 80.7884H363.375V87.1884H365.375H367.375V80.7884H365.375ZM365.375 87.1884V85.1884H358.975V87.1884V89.1884H365.375V87.1884ZM487 87.1884V85.1884H485V87.1884H487ZM487 93.5884V95.5884H489V93.5884H487ZM429.4 93.5884H427.4V95.5884H429.4V93.5884ZM429.4 87.1884H431.4V85.1884H429.4V87.1884ZM423 87.1884H421V89.1884H423V87.1884ZM423 35.9884V33.9884H421V35.9884H423ZM429.4 35.9884V37.9884H431.4V35.9884H429.4ZM429.4 29.5884V27.5884H427.4V29.5884H429.4ZM487 29.5884H489V27.5884H487V29.5884ZM487 35.9884H485V37.9884H487V35.9884ZM493.4 35.9884H495.4V33.9884H493.4V35.9884ZM493.4 87.1884V89.1884H495.4V87.1884H493.4ZM467.8 42.3884H469.8V40.3884H467.8V42.3884ZM448.6 42.3884V40.3884H446.6V42.3884H448.6ZM448.6 80.7884H446.6V82.7884H448.6V80.7884ZM467.8 80.7884V82.7884H469.8V80.7884H467.8ZM487 87.1884H485V93.5884H487H489V87.1884H487ZM487 93.5884V91.5884H429.4V93.5884V95.5884H487V93.5884ZM429.4 93.5884H431.4V87.1884H429.4H427.4V93.5884H429.4ZM429.4 87.1884V85.1884H423V87.1884V89.1884H429.4V87.1884ZM423 87.1884H425V35.9884H423H421V87.1884H423ZM423 35.9884V37.9884H429.4V35.9884V33.9884H423V35.9884ZM429.4 35.9884H431.4V29.5884H429.4H427.4V35.9884H429.4ZM429.4 29.5884V31.5884H487V29.5884V27.5884H429.4V29.5884ZM487 29.5884H485V35.9884H487H489V29.5884H487ZM487 35.9884V37.9884H493.4V35.9884V33.9884H487V35.9884ZM493.4 35.9884H491.4V87.1884H493.4H495.4V35.9884H493.4ZM493.4 87.1884V85.1884H487V87.1884V89.1884H493.4V87.1884ZM467.8 67.9884H469.8V55.1884H467.8H465.8V67.9884H467.8ZM467.8 55.1884H469.8V42.3884H467.8H465.8V55.1884H467.8ZM467.8 42.3884V40.3884H448.6V42.3884V44.3884H467.8V42.3884ZM448.6 42.3884H446.6V80.7884H448.6H450.6V42.3884H448.6ZM448.6 80.7884V82.7884H467.8V80.7884V78.7884H448.6V80.7884ZM467.8 80.7884H469.8V67.9884H467.8H465.8V80.7884H467.8ZM525.35 67.9884V65.9884H523.35V67.9884H525.35ZM525.35 93.5884V95.5884H527.35V93.5884H525.35ZM499.75 93.5884H497.75V95.5884H499.75V93.5884ZM499.75 29.5884V27.5884H497.75V29.5884H499.75ZM563.75 29.5884H565.75V27.5884H563.75V29.5884ZM563.75 35.9884H561.75V37.9884H563.75V35.9884ZM570.15 35.9884H572.15V33.9884H570.15V35.9884ZM570.15 55.1884V57.1884H572.15V55.1884H570.15ZM563.75 55.1884V53.1884H561.75V55.1884H563.75ZM563.75 67.9884H561.75V69.9884H563.75V67.9884ZM570.15 67.9884H572.15V65.9884H570.15V67.9884ZM570.15 93.5884V95.5884H572.15V93.5884H570.15ZM544.55 93.5884H542.55V95.5884H544.55V93.5884ZM544.55 67.9884H546.55V65.9884H544.55V67.9884ZM525.35 42.3884V40.3884H523.35V42.3884H525.35ZM525.35 55.1884H523.35V57.1884H525.35V55.1884ZM544.55 55.1884V57.1884H546.55V55.1884H544.55ZM544.55 42.3884H546.55V40.3884H544.55V42.3884ZM525.35 67.9884H523.35V93.5884H525.35H527.35V67.9884H525.35ZM525.35 93.5884V91.5884H499.75V93.5884V95.5884H525.35V93.5884ZM499.75 93.5884H501.75V29.5884H499.75H497.75V93.5884H499.75ZM499.75 29.5884V31.5884H525.35V29.5884V27.5884H499.75V29.5884ZM525.35 29.5884V31.5884H544.55V29.5884V27.5884H525.35V29.5884ZM544.55 29.5884V31.5884H563.75V29.5884V27.5884H544.55V29.5884ZM563.75 29.5884H561.75V35.9884H563.75H565.75V29.5884H563.75ZM563.75 35.9884V37.9884H570.15V35.9884V33.9884H563.75V35.9884ZM570.15 35.9884H568.15V55.1884H570.15H572.15V35.9884H570.15ZM570.15 55.1884V53.1884H563.75V55.1884V57.1884H570.15V55.1884ZM563.75 55.1884H561.75V67.9884H563.75H565.75V55.1884H563.75ZM563.75 67.9884V69.9884H570.15V67.9884V65.9884H563.75V67.9884ZM570.15 67.9884H568.15V93.5884H570.15H572.15V67.9884H570.15ZM570.15 93.5884V91.5884H544.55V93.5884V95.5884H570.15V93.5884ZM544.55 93.5884H546.55V67.9884H544.55H542.55V93.5884H544.55ZM544.55 67.9884V65.9884H525.35V67.9884V69.9884H544.55V67.9884ZM525.35 42.3884H523.35V55.1884H525.35H527.35V42.3884H525.35ZM525.35 55.1884V57.1884H544.55V55.1884V53.1884H525.35V55.1884ZM544.55 55.1884H546.55V42.3884H544.55H542.55V55.1884H544.55ZM544.55 42.3884V40.3884H525.35V42.3884V44.3884H544.55V42.3884ZM602.1 74.3884V72.3884H600.1V74.3884H602.1ZM602.1 93.5884V95.5884H604.1V93.5884H602.1ZM576.5 93.5884H574.5V95.5884H576.5V93.5884ZM576.5 29.5884V27.5884H574.5V29.5884H576.5ZM602.1 29.5884H604.1V27.5884H602.1V29.5884ZM602.1 48.7884H600.1V50.7884H602.1V48.7884ZM608.5 48.7884V50.7884H610.5V48.7884H608.5ZM608.5 42.3884V40.3884H606.5V42.3884H608.5ZM614.9 42.3884V44.3884H616.9V42.3884H614.9ZM614.9 35.9884V33.9884H612.9V35.9884H614.9ZM621.3 35.9884V37.9884H623.3V35.9884H621.3ZM621.3 29.5884V27.5884H619.3V29.5884H621.3ZM653.3 29.5884H655.3V27.5884H653.3V29.5884ZM653.3 42.3884V44.3884H655.3V42.3884H653.3ZM646.9 42.3884V40.3884H644.9V42.3884H646.9ZM646.9 48.7884V50.7884H648.9V48.7884H646.9ZM640.5 48.7884V46.7884H638.5V48.7884H640.5ZM640.5 55.1884V57.1884H642.5V55.1884H640.5ZM634.1 55.1884V53.1884H632.1V55.1884H634.1ZM634.1 67.9884H632.1V69.9884H634.1V67.9884ZM640.5 67.9884H642.5V65.9884H640.5V67.9884ZM640.5 74.3884H638.5V76.3884H640.5V74.3884ZM646.9 74.3884H648.9V72.3884H646.9V74.3884ZM646.9 80.7884H644.9V82.7884H646.9V80.7884ZM653.3 80.7884H655.3V78.7884H653.3V80.7884ZM653.3 93.5884V95.5884H655.3V93.5884H653.3ZM621.3 93.5884H619.3V95.5884H621.3V93.5884ZM621.3 87.1884H623.3V85.1884H621.3V87.1884ZM614.9 87.1884H612.9V89.1884H614.9V87.1884ZM614.9 80.7884H616.9V78.7884H614.9V80.7884ZM608.5 80.7884H606.5V82.7884H608.5V80.7884ZM608.5 74.3884H610.5V72.3884H608.5V74.3884ZM602.1 74.3884H600.1V93.5884H602.1H604.1V74.3884H602.1ZM602.1 93.5884V91.5884H576.5V93.5884V95.5884H602.1V93.5884ZM576.5 93.5884H578.5V29.5884H576.5H574.5V93.5884H576.5ZM576.5 29.5884V31.5884H602.1V29.5884V27.5884H576.5V29.5884ZM602.1 29.5884H600.1V48.7884H602.1H604.1V29.5884H602.1ZM602.1 48.7884V50.7884H608.5V48.7884V46.7884H602.1V48.7884ZM608.5 48.7884H610.5V42.3884H608.5H606.5V48.7884H608.5ZM608.5 42.3884V44.3884H614.9V42.3884V40.3884H608.5V42.3884ZM614.9 42.3884H616.9V35.9884H614.9H612.9V42.3884H614.9ZM614.9 35.9884V37.9884H621.3V35.9884V33.9884H614.9V35.9884ZM621.3 35.9884H623.3V29.5884H621.3H619.3V35.9884H621.3ZM621.3 29.5884V31.5884H646.9V29.5884V27.5884H621.3V29.5884ZM646.9 29.5884V31.5884H653.3V29.5884V27.5884H646.9V29.5884ZM653.3 29.5884H651.3V42.3884H653.3H655.3V29.5884H653.3ZM653.3 42.3884V40.3884H646.9V42.3884V44.3884H653.3V42.3884ZM646.9 42.3884H644.9V48.7884H646.9H648.9V42.3884H646.9ZM646.9 48.7884V46.7884H640.5V48.7884V50.7884H646.9V48.7884ZM640.5 48.7884H638.5V55.1884H640.5H642.5V48.7884H640.5ZM640.5 55.1884V53.1884H634.1V55.1884V57.1884H640.5V55.1884ZM634.1 55.1884H632.1V67.9884H634.1H636.1V55.1884H634.1ZM634.1 67.9884V69.9884H640.5V67.9884V65.9884H634.1V67.9884ZM640.5 67.9884H638.5V74.3884H640.5H642.5V67.9884H640.5ZM640.5 74.3884V76.3884H646.9V74.3884V72.3884H640.5V74.3884ZM646.9 74.3884H644.9V80.7884H646.9H648.9V74.3884H646.9ZM646.9 80.7884V82.7884H653.3V80.7884V78.7884H646.9V80.7884ZM653.3 80.7884H651.3V93.5884H653.3H655.3V80.7884H653.3ZM653.3 93.5884V91.5884H621.3V93.5884V95.5884H653.3V93.5884ZM621.3 93.5884H623.3V87.1884H621.3H619.3V93.5884H621.3ZM621.3 87.1884V85.1884H614.9V87.1884V89.1884H621.3V87.1884ZM614.9 87.1884H616.9V80.7884H614.9H612.9V87.1884H614.9ZM614.9 80.7884V78.7884H608.5V80.7884V82.7884H614.9V80.7884ZM608.5 80.7884H610.5V74.3884H608.5H606.5V80.7884H608.5ZM608.5 74.3884V72.3884H602.1V74.3884V76.3884H608.5V74.3884ZM80.75 188.588H78.75V190.588H80.75V188.588ZM80.75 175.788V173.788H78.75V175.788H80.75ZM125.55 175.788V177.788H127.55V175.788H125.55ZM125.55 162.988H127.55V160.988H125.55V162.988ZM87.15 162.988H85.15V164.988H87.15V162.988ZM87.15 156.588H89.15V154.588H87.15V156.588ZM80.75 156.588H78.75V158.588H80.75V156.588ZM80.75 130.988V128.988H78.75V130.988H80.75ZM87.15 130.988V132.988H89.15V130.988H87.15ZM87.15 124.588V122.588H85.15V124.588H87.15ZM151.15 124.588H153.15V122.588H151.15V124.588ZM151.15 137.388V139.388H153.15V137.388H151.15ZM106.35 137.388V135.388H104.35V137.388H106.35ZM106.35 150.188H104.35V152.188H106.35V150.188ZM144.75 150.188H146.75V148.188H144.75V150.188ZM144.75 156.588H142.75V158.588H144.75V156.588ZM151.15 156.588H153.15V154.588H151.15V156.588ZM151.15 182.188V184.188H153.15V182.188H151.15ZM144.75 182.188V180.188H142.75V182.188H144.75ZM144.75 188.588V190.588H146.75V188.588H144.75ZM80.75 188.588H82.75V175.788H80.75H78.75V188.588H80.75ZM80.75 175.788V177.788H125.55V175.788V173.788H80.75V175.788ZM125.55 175.788H127.55V162.988H125.55H123.55V175.788H125.55ZM125.55 162.988V160.988H87.15V162.988V164.988H125.55V162.988ZM87.15 162.988H89.15V156.588H87.15H85.15V162.988H87.15ZM87.15 156.588V154.588H80.75V156.588V158.588H87.15V156.588ZM80.75 156.588H82.75V130.988H80.75H78.75V156.588H80.75ZM80.75 130.988V132.988H87.15V130.988V128.988H80.75V130.988ZM87.15 130.988H89.15V124.588H87.15H85.15V130.988H87.15ZM87.15 124.588V126.588H151.15V124.588V122.588H87.15V124.588ZM151.15 124.588H149.15V137.388H151.15H153.15V124.588H151.15ZM151.15 137.388V135.388H106.35V137.388V139.388H151.15V137.388ZM106.35 137.388H104.35V150.188H106.35H108.35V137.388H106.35ZM106.35 150.188V152.188H125.55V150.188V148.188H106.35V150.188ZM125.55 150.188V152.188H144.75V150.188V148.188H125.55V150.188ZM144.75 150.188H142.75V156.588H144.75H146.75V150.188H144.75ZM144.75 156.588V158.588H151.15V156.588V154.588H144.75V156.588ZM151.15 156.588H149.15V182.188H151.15H153.15V156.588H151.15ZM151.15 182.188V180.188H144.75V182.188V184.188H151.15V182.188ZM144.75 182.188H142.75V188.588H144.75H146.75V182.188H144.75ZM144.75 188.588V186.588H80.75V188.588V190.588H144.75V188.588ZM163.9 188.588H161.9V190.588H163.9V188.588ZM163.9 182.188H165.9V180.188H163.9V182.188ZM157.5 182.188H155.5V184.188H157.5V182.188ZM157.5 130.988V128.988H155.5V130.988H157.5ZM163.9 130.988V132.988H165.9V130.988H163.9ZM163.9 124.588V122.588H161.9V124.588H163.9ZM227.9 124.588H229.9V122.588H227.9V124.588ZM227.9 137.388V139.388H229.9V137.388H227.9ZM183.1 137.388V135.388H181.1V137.388H183.1ZM183.1 150.188H181.1V152.188H183.1V150.188ZM202.3 150.188H204.3V148.188H202.3V150.188ZM202.3 162.988V164.988H204.3V162.988H202.3ZM183.1 162.988V160.988H181.1V162.988H183.1ZM183.1 175.788H181.1V177.788H183.1V175.788ZM227.9 175.788H229.9V173.788H227.9V175.788ZM227.9 188.588V190.588H229.9V188.588H227.9ZM163.9 188.588H165.9V182.188H163.9H161.9V188.588H163.9ZM163.9 182.188V180.188H157.5V182.188V184.188H163.9V182.188ZM157.5 182.188H159.5V130.988H157.5H155.5V182.188H157.5ZM157.5 130.988V132.988H163.9V130.988V128.988H157.5V130.988ZM163.9 130.988H165.9V124.588H163.9H161.9V130.988H163.9ZM163.9 124.588V126.588H227.9V124.588V122.588H163.9V124.588ZM227.9 124.588H225.9V137.388H227.9H229.9V124.588H227.9ZM227.9 137.388V135.388H183.1V137.388V139.388H227.9V137.388ZM183.1 137.388H181.1V150.188H183.1H185.1V137.388H183.1ZM183.1 150.188V152.188H202.3V150.188V148.188H183.1V150.188ZM202.3 150.188H200.3V162.988H202.3H204.3V150.188H202.3ZM202.3 162.988V160.988H183.1V162.988V164.988H202.3V162.988ZM183.1 162.988H181.1V175.788H183.1H185.1V162.988H183.1ZM183.1 175.788V177.788H227.9V175.788V173.788H183.1V175.788ZM227.9 175.788H225.9V188.588H227.9H229.9V175.788H227.9ZM227.9 188.588V186.588H163.9V188.588V190.588H227.9V188.588ZM298.25 182.188V180.188H296.25V182.188H298.25ZM298.25 188.588V190.588H300.25V188.588H298.25ZM240.65 188.588H238.65V190.588H240.65V188.588ZM240.65 182.188H242.65V180.188H240.65V182.188ZM234.25 182.188H232.25V184.188H234.25V182.188ZM234.25 130.988V128.988H232.25V130.988H234.25ZM240.65 130.988V132.988H242.65V130.988H240.65ZM240.65 124.588V122.588H238.65V124.588H240.65ZM298.25 124.588H300.25V122.588H298.25V124.588ZM298.25 130.988H296.25V132.988H298.25V130.988ZM304.65 130.988H306.65V128.988H304.65V130.988ZM304.65 150.188V152.188H306.65V150.188H304.65ZM279.05 150.188H277.05V152.188H279.05V150.188ZM279.05 137.388H281.05V135.388H279.05V137.388ZM259.85 137.388V135.388H257.85V137.388H259.85ZM259.85 175.788H257.85V177.788H259.85V175.788ZM279.05 175.788V177.788H281.05V175.788H279.05ZM279.05 162.988V160.988H277.05V162.988H279.05ZM304.65 162.988H306.65V160.988H304.65V162.988ZM304.65 182.188V184.188H306.65V182.188H304.65ZM298.25 182.188H296.25V188.588H298.25H300.25V182.188H298.25ZM298.25 188.588V186.588H240.65V188.588V190.588H298.25V188.588ZM240.65 188.588H242.65V182.188H240.65H238.65V188.588H240.65ZM240.65 182.188V180.188H234.25V182.188V184.188H240.65V182.188ZM234.25 182.188H236.25V130.988H234.25H232.25V182.188H234.25ZM234.25 130.988V132.988H240.65V130.988V128.988H234.25V130.988ZM240.65 130.988H242.65V124.588H240.65H238.65V130.988H240.65ZM240.65 124.588V126.588H259.85V124.588V122.588H240.65V124.588ZM259.85 124.588V126.588H298.25V124.588V122.588H259.85V124.588ZM298.25 124.588H296.25V130.988H298.25H300.25V124.588H298.25ZM298.25 130.988V132.988H304.65V130.988V128.988H298.25V130.988ZM304.65 130.988H302.65V150.188H304.65H306.65V130.988H304.65ZM304.65 150.188V148.188H279.05V150.188V152.188H304.65V150.188ZM279.05 150.188H281.05V137.388H279.05H277.05V150.188H279.05ZM279.05 137.388V135.388H259.85V137.388V139.388H279.05V137.388ZM259.85 137.388H257.85V175.788H259.85H261.85V137.388H259.85ZM259.85 175.788V177.788H279.05V175.788V173.788H259.85V175.788ZM279.05 175.788H281.05V162.988H279.05H277.05V175.788H279.05ZM279.05 162.988V164.988H298.25V162.988V160.988H279.05V162.988ZM298.25 162.988V164.988H304.65V162.988V160.988H298.25V162.988ZM304.65 162.988H302.65V182.188H304.65H306.65V162.988H304.65ZM304.65 182.188V180.188H298.25V182.188V184.188H304.65V182.188ZM375 182.188V180.188H373V182.188H375ZM375 188.588V190.588H377V188.588H375ZM317.4 188.588H315.4V190.588H317.4V188.588ZM317.4 182.188H319.4V180.188H317.4V182.188ZM311 182.188H309V184.188H311V182.188ZM311 124.588V122.588H309V124.588H311ZM336.6 124.588H338.6V122.588H336.6V124.588ZM336.6 175.788H334.6V177.788H336.6V175.788ZM355.8 175.788V177.788H357.8V175.788H355.8ZM355.8 124.588V122.588H353.8V124.588H355.8ZM381.4 124.588H383.4V122.588H381.4V124.588ZM381.4 182.188V184.188H383.4V182.188H381.4ZM375 182.188H373V188.588H375H377V182.188H375ZM375 188.588V186.588H317.4V188.588V190.588H375V188.588ZM317.4 188.588H319.4V182.188H317.4H315.4V188.588H317.4ZM317.4 182.188V180.188H311V182.188V184.188H317.4V182.188ZM311 182.188H313V124.588H311H309V182.188H311ZM311 124.588V126.588H336.6V124.588V122.588H311V124.588ZM336.6 124.588H334.6V175.788H336.6H338.6V124.588H336.6ZM336.6 175.788V177.788H355.8V175.788V173.788H336.6V175.788ZM355.8 175.788H357.8V124.588H355.8H353.8V175.788H355.8ZM355.8 124.588V126.588H381.4V124.588V122.588H355.8V124.588ZM381.4 124.588H379.4V182.188H381.4H383.4V124.588H381.4ZM381.4 182.188V180.188H375V182.188V184.188H381.4V182.188ZM413.35 162.988V160.988H411.35V162.988H413.35ZM413.35 188.588V190.588H415.35V188.588H413.35ZM387.75 188.588H385.75V190.588H387.75V188.588ZM387.75 124.588V122.588H385.75V124.588H387.75ZM451.75 124.588H453.75V122.588H451.75V124.588ZM451.75 130.988H449.75V132.988H451.75V130.988ZM458.15 130.988H460.15V128.988H458.15V130.988ZM458.15 150.188V152.188H460.15V150.188H458.15ZM451.75 150.188V148.188H449.75V150.188H451.75ZM451.75 162.988H449.75V164.988H451.75V162.988ZM458.15 162.988H460.15V160.988H458.15V162.988ZM458.15 188.588V190.588H460.15V188.588H458.15ZM432.55 188.588H430.55V190.588H432.55V188.588ZM432.55 162.988H434.55V160.988H432.55V162.988ZM413.35 137.388V135.388H411.35V137.388H413.35ZM413.35 150.188H411.35V152.188H413.35V150.188ZM432.55 150.188V152.188H434.55V150.188H432.55ZM432.55 137.388H434.55V135.388H432.55V137.388ZM413.35 162.988H411.35V188.588H413.35H415.35V162.988H413.35ZM413.35 188.588V186.588H387.75V188.588V190.588H413.35V188.588ZM387.75 188.588H389.75V124.588H387.75H385.75V188.588H387.75ZM387.75 124.588V126.588H413.35V124.588V122.588H387.75V124.588ZM413.35 124.588V126.588H432.55V124.588V122.588H413.35V124.588ZM432.55 124.588V126.588H451.75V124.588V122.588H432.55V124.588ZM451.75 124.588H449.75V130.988H451.75H453.75V124.588H451.75ZM451.75 130.988V132.988H458.15V130.988V128.988H451.75V130.988ZM458.15 130.988H456.15V150.188H458.15H460.15V130.988H458.15ZM458.15 150.188V148.188H451.75V150.188V152.188H458.15V150.188ZM451.75 150.188H449.75V162.988H451.75H453.75V150.188H451.75ZM451.75 162.988V164.988H458.15V162.988V160.988H451.75V162.988ZM458.15 162.988H456.15V188.588H458.15H460.15V162.988H458.15ZM458.15 188.588V186.588H432.55V188.588V190.588H458.15V188.588ZM432.55 188.588H434.55V162.988H432.55H430.55V188.588H432.55ZM432.55 162.988V160.988H413.35V162.988V164.988H432.55V162.988ZM413.35 137.388H411.35V150.188H413.35H415.35V137.388H413.35ZM413.35 150.188V152.188H432.55V150.188V148.188H413.35V150.188ZM432.55 150.188H434.55V137.388H432.55H430.55V150.188H432.55ZM432.55 137.388V135.388H413.35V137.388V139.388H432.55V137.388ZM464.5 137.388H462.5V139.388H464.5V137.388ZM464.5 124.588V122.588H462.5V124.588H464.5ZM528.5 124.588H530.5V122.588H528.5V124.588ZM528.5 137.388V139.388H530.5V137.388H528.5ZM509.3 137.388V135.388H507.3V137.388H509.3ZM509.3 175.788H507.3V177.788H509.3V175.788ZM528.5 175.788H530.5V173.788H528.5V175.788ZM528.5 188.588V190.588H530.5V188.588H528.5ZM464.5 188.588H462.5V190.588H464.5V188.588ZM464.5 175.788V173.788H462.5V175.788H464.5ZM483.7 175.788V177.788H485.7V175.788H483.7ZM483.7 137.388H485.7V135.388H483.7V137.388ZM464.5 137.388H466.5V124.588H464.5H462.5V137.388H464.5ZM464.5 124.588V126.588H528.5V124.588V122.588H464.5V124.588ZM528.5 124.588H526.5V137.388H528.5H530.5V124.588H528.5ZM528.5 137.388V135.388H509.3V137.388V139.388H528.5V137.388ZM509.3 137.388H507.3V175.788H509.3H511.3V137.388H509.3ZM509.3 175.788V177.788H528.5V175.788V173.788H509.3V175.788ZM528.5 175.788H526.5V188.588H528.5H530.5V175.788H528.5ZM528.5 188.588V186.588H464.5V188.588V190.588H528.5V188.588ZM464.5 188.588H466.5V175.788H464.5H462.5V188.588H464.5ZM464.5 175.788V177.788H483.7V175.788V173.788H464.5V175.788ZM483.7 175.788H485.7V137.388H483.7H481.7V175.788H483.7ZM483.7 137.388V135.388H464.5V137.388V139.388H483.7V137.388ZM579.675 137.388V135.388H577.675V137.388H579.675ZM579.675 188.588V190.588H581.675V188.588H579.675ZM554.075 188.588H552.075V190.588H554.075V188.588ZM554.075 137.388H556.075V135.388H554.075V137.388ZM534.875 137.388H532.875V139.388H534.875V137.388ZM534.875 124.588V122.588H532.875V124.588H534.875ZM598.875 124.588H600.875V122.588H598.875V124.588ZM598.875 137.388V139.388H600.875V137.388H598.875ZM579.675 137.388H577.675V188.588H579.675H581.675V137.388H579.675ZM579.675 188.588V186.588H554.075V188.588V190.588H579.675V188.588ZM554.075 188.588H556.075V137.388H554.075H552.075V188.588H554.075ZM554.075 137.388V135.388H534.875V137.388V139.388H554.075V137.388ZM534.875 137.388H536.875V124.588H534.875H532.875V137.388H534.875ZM534.875 124.588V126.588H598.875V124.588V122.588H534.875V124.588ZM598.875 124.588H596.875V137.388H598.875H600.875V124.588H598.875ZM598.875 137.388V135.388H579.675V137.388V139.388H598.875V137.388ZM605.25 150.188H603.25V152.188H605.25V150.188ZM605.25 124.588V122.588H603.25V124.588H605.25ZM630.85 124.588H632.85V122.588H630.85V124.588ZM630.85 143.788H628.85V145.788H630.85V143.788ZM637.25 143.788H639.25V141.788H637.25V143.788ZM637.25 150.188H635.25V152.188H637.25V150.188ZM650.05 150.188V152.188H652.05V150.188H650.05ZM650.05 143.788V141.788H648.05V143.788H650.05ZM656.45 143.788V145.788H658.45V143.788H656.45ZM656.45 124.588V122.588H654.45V124.588H656.45ZM682.05 124.588H684.05V122.588H682.05V124.588ZM682.05 150.188V152.188H684.05V150.188H682.05ZM675.65 150.188V148.188H673.65V150.188H675.65ZM675.65 156.588V158.588H677.65V156.588H675.65ZM669.25 156.588V154.588H667.25V156.588H669.25ZM669.25 162.988V164.988H671.25V162.988H669.25ZM656.45 162.988V160.988H654.45V162.988H656.45ZM656.45 188.588V190.588H658.45V188.588H656.45ZM630.85 188.588H628.85V190.588H630.85V188.588ZM630.85 162.988H632.85V160.988H630.85V162.988ZM618.05 162.988H616.05V164.988H618.05V162.988ZM618.05 156.588H620.05V154.588H618.05V156.588ZM611.65 156.588H609.65V158.588H611.65V156.588ZM611.65 150.188H613.65V148.188H611.65V150.188ZM605.25 150.188H607.25V124.588H605.25H603.25V150.188H605.25ZM605.25 124.588V126.588H630.85V124.588V122.588H605.25V124.588ZM630.85 124.588H628.85V143.788H630.85H632.85V124.588H630.85ZM630.85 143.788V145.788H637.25V143.788V141.788H630.85V143.788ZM637.25 143.788H635.25V150.188H637.25H639.25V143.788H637.25ZM637.25 150.188V152.188H650.05V150.188V148.188H637.25V150.188ZM650.05 150.188H652.05V143.788H650.05H648.05V150.188H650.05ZM650.05 143.788V145.788H656.45V143.788V141.788H650.05V143.788ZM656.45 143.788H658.45V124.588H656.45H654.45V143.788H656.45ZM656.45 124.588V126.588H682.05V124.588V122.588H656.45V124.588ZM682.05 124.588H680.05V150.188H682.05H684.05V124.588H682.05ZM682.05 150.188V148.188H675.65V150.188V152.188H682.05V150.188ZM675.65 150.188H673.65V156.588H675.65H677.65V150.188H675.65ZM675.65 156.588V154.588H669.25V156.588V158.588H675.65V156.588ZM669.25 156.588H667.25V162.988H669.25H671.25V156.588H669.25ZM669.25 162.988V160.988H656.45V162.988V164.988H669.25V162.988ZM656.45 162.988H654.45V188.588H656.45H658.45V162.988H656.45ZM656.45 188.588V186.588H630.85V188.588V190.588H656.45V188.588ZM630.85 188.588H632.85V162.988H630.85H628.85V188.588H630.85ZM630.85 162.988V160.988H618.05V162.988V164.988H630.85V162.988ZM618.05 162.988H620.05V156.588H618.05H616.05V162.988H618.05ZM618.05 156.588V154.588H611.65V156.588V158.588H618.05V156.588ZM611.65 156.588H613.65V150.188H611.65H609.65V156.588H611.65ZM611.65 150.188V148.188H605.25V150.188V152.188H611.65V150.188Z" fill="#00E0FF" style="mix-blend-mode:overlay" mask="url(#path-3-inside-1_645_666)"/>
</g>
<defs>
<filter id="filter1_ddf_645_666" x="76.75" y="25.5884" width="609.301" height="171" filterUnits="userSpaceOnUse" color-interpolation-filters="sRGB">
<feFlood flood-opacity="0" result="BackgroundImageFix"/>
<feColorMatrix in="SourceAlpha" type="matrix" values="0 0 0 0 0 0 0 0 0 0 0 0 0 0 0 0 0 0 127 0" result="hardAlpha"/>
<feOffset dy="7"/>
<feGaussianBlur stdDeviation="0.5"/>
<feComposite in2="hardAlpha" operator="out"/>
<feColorMatrix type="matrix" values="0 0 0 0 0.454902 0 0 0 0 0.976471 0 0 0 0 1 0 0 0 1 0"/>
<feBlend mode="normal" in2="BackgroundImageFix" result="effect1_dropShadow_645_666"/>
<feColorMatrix in="SourceAlpha" type="matrix" values="0 0 0 0 0 0 0 0 0 0 0 0 0 0 0 0 0 0 127 0" result="hardAlpha"/>
<feOffset dy="4"/>
<feComposite in2="hardAlpha" operator="out"/>
<feColorMatrix type="matrix" values="0 0 0 0 0 0 0 0 0 0.878431 0 0 0 0 1 0 0 0 1 0"/>
<feBlend mode="normal" in2="effect1_dropShadow_645_666" result="effect2_dropShadow_645_666"/>
<feBlend mode="normal" in="SourceGraphic" in2="effect2_dropShadow_645_666" result="shape"/>
<feGaussianBlur stdDeviation="2" result="effect3_foregroundBlur_645_666"/>
</filter>
<filter id="filter2_dd_645_666" x="79.75" y="29.5884" width="603.301" height="167" filterUnits="userSpaceOnUse" color-interpolation-filters="sRGB">
<feFlood flood-opacity="0" result="BackgroundImageFix"/>
<feColorMatrix in="SourceAlpha" type="matrix" values="0 0 0 0 0 0 0 0 0 0 0 0 0 0 0 0 0 0 127 0" result="hardAlpha"/>
<feOffset dy="7"/>
<feGaussianBlur stdDeviation="0.5"/>
<feComposite in2="hardAlpha" operator="out"/>
<feColorMatrix type="matrix" values="0 0 0 0 0.454902 0 0 0 0 0.976471 0 0 0 0 1 0 0 0 1 0"/>
<feBlend mode="normal" in2="BackgroundImageFix" result="effect1_dropShadow_645_666"/>
<feColorMatrix in="SourceAlpha" type="matrix" values="0 0 0 0 0 0 0 0 0 0 0 0 0 0 0 0 0 0 127 0" result="hardAlpha"/>
<feOffset dy="4"/>
<feComposite in2="hardAlpha" operator="out"/>
<feColorMatrix type="matrix" values="0 0 0 0 0 0 0 0 0 0.878431 0 0 0 0 1 0 0 0 1 0"/>
<feBlend mode="normal" in2="effect1_dropShadow_645_666" result="effect2_dropShadow_645_666"/>
<feBlend mode="normal" in="SourceGraphic" in2="effect2_dropShadow_645_666" result="shape"/>
</filter>
</defs>
</svg>
